<?xml version="1.0" encoding="UTF-8"?>
<svg version="1.1" xmlns="http://www.w3.org/2000/svg" width="500" height="500">
<path d="M0 0 C7.58528331 2.17038763 13.40352111 6.68227697 18.25 12.875 C20.02281769 20.26174037 16.82755272 27.051005 13.01538086 33.27807617 C12.49468018 34.09381104 11.97397949 34.9095459 11.4375 35.75 C10.89810791 36.62052002 10.35871582 37.49104004 9.80297852 38.38793945 C8.21803108 40.93583938 6.61279892 43.46966324 5 46 C4.58234375 46.66112793 4.1646875 47.32225586 3.734375 48.00341797 C1.57318105 51.42376645 -0.61988384 54.82190851 -2.83300781 58.20898438 C-4.11168624 60.171408 -5.38074276 62.13983918 -6.6484375 64.109375 C-12.30306731 72.88929898 -18.03778839 81.61118663 -23.85205078 90.28613281 C-26.2715427 93.89838999 -28.67929104 97.51849351 -31.08984375 101.13671875 C-32.32961307 102.99510508 -33.57166786 104.85196951 -34.81640625 106.70703125 C-36.47204017 109.17838459 -38.120742 111.65413929 -39.76318359 114.13427734 C-40.67053413 115.5030047 -41.580021 116.87031648 -42.49072266 118.23681641 C-55.45570318 135.919465 -55.45570318 135.919465 -63 156 C-55.84807872 154.13162693 -55.84807872 154.13162693 -50 150 C-48.96953059 147.91605964 -48.07532194 145.79379442 -47.1796875 143.6484375 C-42.8291569 133.88135224 -36.54598652 125.38438858 -30 117 C-28.88243463 115.56539845 -27.76528075 114.13047629 -26.6484375 112.6953125 C-26.04805664 111.92388916 -25.44767578 111.15246582 -24.82910156 110.35766602 C-23.06898762 108.08892332 -21.31822403 105.81330773 -19.5703125 103.53515625 C-1.22141028 79.66820149 -1.22141028 79.66820149 5 78 C13.35592772 81.22509491 22.77308473 86.65995442 28 94 C28.52956299 93.67201416 29.05912598 93.34402832 29.60473633 93.00610352 C32.00537518 91.52172296 34.40889158 90.04206674 36.8125 88.5625 C37.64587891 88.04623047 38.47925781 87.52996094 39.33789062 86.99804688 C40.14033203 86.50498047 40.94277344 86.01191406 41.76953125 85.50390625 C42.50792236 85.04830322 43.24631348 84.5927002 44.00708008 84.12329102 C48.53085955 81.57350425 52.93865743 81.39364948 58 82 C62.74859103 83.70319834 66.54679989 86.5842398 69 91 C70.22535877 97.89264309 68.05066087 104.46962163 66 111 C66.6290625 110.55269531 67.258125 110.10539062 67.90625 109.64453125 C70.59310155 107.74674002 73.29625177 105.87361606 76 104 C76.70253906 103.49082031 77.40507812 102.98164063 78.12890625 102.45703125 C82.88480021 99.18074875 87.16336341 97.63192382 93 98 C98.41380973 99.71437308 102.83400608 102.24328047 106.375 106.75 C107.82317375 111.96342549 106.45586421 116.56469678 104 121.1875 C101.35128429 125.64041336 98.37164901 129.86999125 95.38891602 134.10302734 C92.00186776 138.92500027 88.93843241 143.89519389 86 149 C86.99 149 87.98 149 89 149 C89.4125 147.948125 89.825 146.89625 90.25 145.8125 C92.47159129 140.1474422 96.35394024 136.47574755 101.1875 132.9375 C101.70449463 132.5566626 102.22148926 132.1758252 102.75415039 131.78344727 C107.79388847 128.09383665 112.92992953 124.53932237 118.04931641 120.96166992 C127.57488107 114.25602025 136.77617335 107.11175914 146 100 C145.43603516 100.06058594 144.87207031 100.12117188 144.29101562 100.18359375 C141.69444994 100.46005038 139.09725103 100.73006099 136.5 101 C135.613125 101.09539062 134.72625 101.19078125 133.8125 101.2890625 C128.51496112 101.83439739 123.324212 102.29744201 118 102 C114.30015473 98.77449387 113.44721843 95.80759817 113 91 C119.88336355 88.60298671 126.80107376 86.68585977 133.875 84.9375 C134.88691406 84.68162109 135.89882813 84.42574219 136.94140625 84.16210938 C152.92384584 80.18184753 166.81393312 77.01302879 181.94140625 84.8828125 C186.14328525 87.79139285 189.58493756 90.78633365 190.5625 96 C188.60918761 106.41766609 177.15120286 113.93081216 169.0625 119.6875 C167.38315987 120.90363065 165.70479466 122.12110855 164.02734375 123.33984375 C163.18800293 123.94812012 162.34866211 124.55639648 161.48388672 125.18310547 C157.65520104 127.9836833 153.88653913 130.86015256 150.125 133.75 C149.43422363 134.28028809 148.74344727 134.81057617 148.03173828 135.35693359 C146.02004177 136.90317688 144.00994645 138.45148287 142 140 C140.6837303 141.0118964 139.36732727 142.02361939 138.05078125 143.03515625 C135.03235133 145.35482402 132.01561073 147.6766686 129 150 C129.73001221 149.91435791 130.46002441 149.82871582 131.2121582 149.74047852 C134.57877018 149.34636324 137.94563181 148.95442023 141.3125 148.5625 C143.03436523 148.36043945 143.03436523 148.36043945 144.79101562 148.15429688 C151.85331056 147.33403032 158.91576391 146.60285636 166 146 C166.94838583 149.02703969 167.08720179 149.77715099 165.875 152.875 C156.75457938 164.95502731 127.4057025 170.92166668 113 173 C108.03952594 173.44574221 103.72482645 173.69727027 99.0625 171.8125 C96.12470773 169.23080377 93.75427772 166.50855543 92 163 C91.13375 163.28875 90.2675 163.5775 89.375 163.875 C88.26125 164.24625 87.1475 164.6175 86 165 C85.13375 165.37125 84.2675 165.7425 83.375 166.125 C77.08460753 167.75584249 70.5939897 168.20092116 64.625 165.4375 C59.30216148 160.49486423 55.15883395 156.46804099 54 149 C54.10317069 143.6445035 55.23141454 139.05206584 57 134 C55.51981957 135.91589116 54.04061616 137.8325167 52.5625 139.75 C52.1094751 140.33765137 51.6564502 140.92530273 51.18969727 141.53076172 C48.23663688 145.36968875 45.32559401 149.23678864 42.4375 153.125 C27.99019664 172.41368693 27.99019664 172.41368693 21.8125 173.625 C15.12012602 172.52788951 10.88959629 168.07394715 6.4375 163.1875 C4.09344269 157.98980771 3.8534426 153.04459187 5.8828125 147.65576172 C9.13918762 141.16592471 13.07393121 135.56785824 17.5625 129.875 C18.9810293 128.04600753 20.3989916 126.21657518 21.81640625 124.38671875 C22.51781738 123.48614746 23.21922852 122.58557617 23.94189453 121.65771484 C27.00597435 117.70094463 30.00635325 113.69767529 33 109.6875 C33.50990479 109.00606934 34.01980957 108.32463867 34.54516602 107.62255859 C35.6976104 106.0823287 36.84895055 104.54127265 38 103 C37.05125 103.66 36.1025 104.32 35.125 105 C32 107 32 107 30 107 C30 107.66 30 108.32 30 109 C28.40324822 110.41170765 26.74486398 111.75399468 25.0625 113.0625 C15.83750162 120.46848461 8.33111556 128.74596888 1 138 C0.10229671 139.10736644 -0.79616821 140.21411579 -1.6953125 141.3203125 C-6.42359467 147.18559852 -10.79099588 153.08636209 -14.75 159.5 C-18.54424919 165.59215126 -21.97083591 170.57300439 -29 173.0625 C-35.84247494 172.91994844 -41.45337065 168.64492786 -47 165 C-47.61875 165.556875 -48.2375 166.11375 -48.875 166.6875 C-57.87491669 173.34743835 -67.7282866 177.32140143 -79 176 C-81.93938785 175.04984756 -84.57744494 173.93674856 -87 172 C-87.33 171.01 -87.66 170.02 -88 169 C-88.66 169 -89.32 169 -90 169 C-91.38938077 167.03852126 -92.7260411 165.03833424 -94 163 C-97.75945568 164.34218577 -100.62769233 166.04503543 -103.8125 168.4375 C-110.51534932 173.20397063 -116.64699358 176.13011263 -125 175 C-133.23568087 173.00749656 -139.54425048 167.73171857 -144.5234375 160.9140625 C-147.57412386 155.44013591 -147.9355736 150.48664347 -146.328125 144.49609375 C-140.97290308 129.68684543 -129.73479529 116.96256188 -120.54516602 104.37548828 C-116.64696884 98.99895318 -113.07393376 93.50533168 -109.68359375 87.796875 C-104.9754386 79.9754386 -104.9754386 79.9754386 -103 78 C-94.6380366 78.4112441 -84.31122334 80.0625621 -78 86 C-76.2675174 89.88571097 -76.58416705 93.66423471 -77.828125 97.66015625 C-81.56953762 105.85294835 -87.16502556 112.64817262 -92.6796875 119.69921875 C-106.5795221 136.77639121 -106.5795221 136.77639121 -113 157 C-111.10000443 156.26060778 -109.20515833 155.50797656 -107.3125 154.75 C-105.72888672 154.12351562 -105.72888672 154.12351562 -104.11328125 153.484375 C-100.11821197 151.57957409 -96.87079595 149.82647093 -94.91796875 145.73046875 C-94.67691406 144.89128906 -94.43585938 144.05210937 -94.1875 143.1875 C-89.55073377 129.29560118 -81.0621239 117.0975469 -73 105 C-72.21209046 103.81129675 -71.42432289 102.62249937 -70.63671875 101.43359375 C-68.60787186 98.37791064 -66.56810095 95.32963627 -64.52685547 92.28222656 C-61.30296191 87.4633975 -58.09027423 82.63708229 -54.875 77.8125 C-52.90758247 74.86125307 -50.94005903 71.9100782 -48.97167969 68.95947266 C-47.63660154 66.95553292 -46.30399033 64.94994782 -44.97363281 62.94287109 C-40.73901296 56.5623979 -36.41697892 50.25535665 -32 44 C-28.246946 38.66595651 -24.51527095 33.32901177 -20.9375 27.875 C-17.49495278 22.66264 -13.89195302 17.57403448 -10.25 12.5 C-9.41650024 11.33186768 -9.41650024 11.33186768 -8.56616211 10.14013672 C-5.92546376 6.48304728 -3.34857811 3.05598391 0 0 Z " fill="#E30913" transform="translate(268,141)"/>
<path d="M0 0 C0.74792081 0.00234117 1.49584161 0.00468233 2.26642668 0.00709444 C3.45294638 0.00491428 3.45294638 0.00491428 4.66343617 0.00269008 C7.34826214 -0.00099675 10.03303228 0.00252882 12.71785796 0.00595194 C14.64841519 0.00480118 16.5789722 0.00321396 18.50952876 0.0012247 C23.84128122 -0.00297482 29.17301594 -0.00087515 34.50476849 0.00221092 C40.24442954 0.00446228 45.98408742 0.00098672 51.72374785 -0.00176901 C62.97829876 -0.00622854 74.23284303 -0.00524943 85.48739421 -0.00235637 C94.62971691 -0.00010305 103.77203774 0.0002105 112.91436064 -0.00088018 C114.21280549 -0.00103341 115.51125034 -0.00118665 116.849042 -0.00134452 C119.48635074 -0.00166423 122.12365947 -0.00198844 124.76096821 -0.00231712 C148.81652272 -0.00509096 172.87207373 -0.00220857 196.92762767 0.00302548 C218.9069414 0.0077714 240.88624935 0.00734679 262.86556304 0.00256449 C287.53584348 -0.00278532 312.20612059 -0.00489775 336.87640154 -0.00182325 C339.5043093 -0.00150468 342.13221705 -0.00119031 344.7601248 -0.00088018 C346.05329271 -0.00072591 347.34646061 -0.00057163 348.67881542 -0.00041268 C357.81600642 0.00045275 366.95319536 -0.00101096 376.09038603 -0.00335974 C387.21716559 -0.00615693 398.34393809 -0.00542119 409.47071683 -0.00007899 C415.15374941 0.00255912 420.83677019 0.00356124 426.51980269 0.00027186 C431.71334366 -0.00268887 436.90686181 -0.00110207 442.10040069 0.00424941 C443.98799364 0.00537456 445.8755885 0.00478028 447.76318026 0.00237362 C450.31150125 -0.0006284 452.85974209 0.00241206 455.40805876 0.00709444 C456.52993997 0.00358269 456.52993997 0.00358269 457.67448545 0 C462.72309238 0.01878524 462.72309238 0.01878524 463.83724272 1.13293558 C463.93656426 2.82852284 463.96804279 4.52819306 463.97005522 6.22668558 C463.97134429 7.25664652 463.97263335 8.28660746 463.97396147 9.34777933 C463.97009429 10.4318809 463.9662271 11.51598246 463.96224272 12.63293558 C463.96610991 13.71703715 463.9699771 14.80113871 463.97396147 15.91809183 C463.97202788 17.46303324 463.97202788 17.46303324 463.97005522 19.03918558 C463.96892729 19.99115824 463.96779936 20.9431309 463.96663725 21.92395121 C463.83724272 24.13293558 463.83724272 24.13293558 462.83724272 25.13293558 C460.35178412 25.23266746 457.89406968 25.26655852 455.40805876 25.25877672 C454.22153906 25.26095689 454.22153906 25.26095689 453.01104927 25.26318109 C450.3262233 25.26686792 447.64145316 25.26334235 444.95662749 25.25991923 C443.02607025 25.26106999 441.09551324 25.2626572 439.16495669 25.26464647 C433.83320422 25.26884598 428.50146951 25.26674632 423.16971695 25.26366025 C417.4300559 25.26140889 411.69039803 25.26488444 405.9507376 25.26764017 C394.69618668 25.2720997 383.44164241 25.27112059 372.18709123 25.26822753 C363.04476853 25.26597421 353.9024477 25.26566067 344.7601248 25.26675135 C342.81245753 25.2669812 342.81245753 25.2669812 340.82544345 25.26721569 C338.18813471 25.2675354 335.55082597 25.26785961 332.91351724 25.26818828 C308.85796273 25.27096212 284.80241172 25.26807974 260.74685778 25.26284569 C238.76754404 25.25809977 216.7882361 25.25852438 194.80892241 25.26330668 C170.13864196 25.26865648 145.46836486 25.27076891 120.7980839 25.26769441 C118.17017615 25.26737585 115.5422684 25.26706148 112.91436064 25.26675135 C111.62119274 25.26659707 110.32802483 25.2664428 108.99567002 25.26628385 C99.85847903 25.26541842 90.72129009 25.26688212 81.58409941 25.2692309 C70.45731985 25.2720281 59.33054735 25.27129236 48.20376861 25.26595016 C42.52073604 25.26331205 36.83771526 25.26230992 31.15468276 25.26559931 C25.96114178 25.26856003 20.76762363 25.26697324 15.57408476 25.26162176 C13.6864918 25.26049661 11.79889695 25.26109089 9.91130519 25.26349755 C7.36298419 25.26649957 4.81474335 25.26345911 2.26642668 25.25877672 C1.51850588 25.26111789 0.77058507 25.26345906 0 25.26587117 C-5.04860694 25.24708592 -5.04860694 25.24708592 -6.16275728 24.13293558 C-6.26207881 22.43734833 -6.29355735 20.73767811 -6.29556978 19.03918558 C-6.29750337 17.49424418 -6.29750337 17.49424418 -6.29947603 15.91809183 C-6.29560884 14.83399027 -6.29174165 13.74988871 -6.28775728 12.63293558 C-6.29162446 11.54883402 -6.29549165 10.46473246 -6.29947603 9.34777933 C-6.29818696 8.3178184 -6.2968979 7.28785746 -6.29556978 6.22668558 C-6.29444185 5.27471293 -6.29331392 4.32274027 -6.29215181 3.34191996 C-6.04360232 -0.90124185 -3.68528371 0.01371249 0 0 Z " fill="#E40914" transform="translate(33.16275727748871,318.86706441640854)"/>
<path d="M0 0 C3.47892243 1.4297163 4.95799941 3.09457448 7.11352539 6.12866211 C9.68636217 9.153 9.68636217 9.153 13.28585815 10.55886841 C15.97474601 10.55671558 18.51937678 10.30532043 21.18359375 9.94140625 C22.15676041 9.84367416 23.12992706 9.74594208 24.13258362 9.64524841 C27.24009359 9.32444704 30.33706505 8.94519523 33.4375 8.5625 C35.48589157 8.33778125 37.53472366 8.11704031 39.58398438 7.90039062 C43.56155757 7.47716071 47.53668848 7.03690698 51.51123047 6.58618164 C63.33001396 5.28151074 75.11237901 4.83283033 87 5 C88 8 88 8 86.9609375 10.12109375 C80.52029503 19.52823903 75.0596512 22.26148105 63.93991089 24.39532471 C59.16880849 25.24381113 54.38347022 25.99816373 49.59399414 26.73486328 C47.06980832 27.12387369 44.54758667 27.52409363 42.02539062 27.92578125 C33.36590752 29.28757411 24.75893345 30.47273562 16 31 C15.76023438 31.84949219 15.52046875 32.69898438 15.2734375 33.57421875 C13.859667 37.3775216 11.91265566 40.49889785 9.625 43.8125 C8.97277466 44.77385864 8.97277466 44.77385864 8.30737305 45.75463867 C3.41325495 52.9336587 -1.61795495 60.01828142 -6.65185547 67.09960938 C-9.45550512 71.05172978 -12.22567594 75.02726732 -15 79 C-6.62975728 79.20257394 1.39805316 78.62829994 9.6875 77.5 C16.85707421 76.5347814 23.76019998 75.81805738 31 76 C31.6015625 77.8203125 31.6015625 77.8203125 32 80 C30.375 82.875 30.375 82.875 28 86 C27.29875 87.03125 26.5975 88.0625 25.875 89.125 C19.51730422 96.48159218 7.33477676 97.37400238 -1.625 99.0625 C-2.97095466 99.33191962 -4.31657604 99.60300935 -5.66186523 99.87573242 C-16.56126075 102.05988006 -16.56126075 102.05988006 -22.05859375 102.453125 C-28.06306615 102.93224996 -32.31955774 103.912157 -36.48828125 108.46875 C-39.43440926 112.07843928 -42.03549252 115.88212137 -44.56542969 119.79150391 C-46.60817718 122.93627822 -48.80430563 125.96124437 -51 129 C-51.80731087 130.14191351 -52.61460224 131.2838408 -53.421875 132.42578125 C-56.79068259 137.14132354 -60.34290239 141.71571669 -63.88256836 146.3034668 C-68.81047183 152.70662559 -73.59449386 159.21080073 -78.33105469 165.7565918 C-79.86295046 167.85747104 -81.42710485 169.92979038 -83 172 C-83.56460938 172.79664063 -84.12921875 173.59328125 -84.7109375 174.4140625 C-88.68135344 177.16489675 -93.35446493 177.39505447 -98.0625 178.0625 C-105.05085958 179.10778696 -111.75754721 180.34683894 -118.52514648 182.41186523 C-121.1029089 183.02445571 -123.3605141 183.10418635 -126 183 C-126.49397969 178.2932022 -125.05417354 176.00367734 -122.4140625 172.16796875 C-122.04151337 171.61890869 -121.66896423 171.06984863 -121.28512573 170.50415039 C-120.07517852 168.72479965 -118.85011552 166.95643202 -117.625 165.1875 C-116.37084658 163.3500528 -115.12095954 161.50976006 -113.87164307 159.66902161 C-113.04777064 158.45514217 -112.22270247 157.24207342 -111.39642334 156.02983093 C-108.30654432 151.48768677 -105.35751639 146.87818529 -102.5 142.1875 C-99.49014772 137.27487487 -96.31900093 132.53976372 -92.9375 127.875 C-89.49099951 123.09683503 -86.05244758 118.31680352 -82.75 113.4375 C-82.34257568 112.86563965 -81.93515137 112.2937793 -81.51538086 111.70458984 C-80.2496405 109.8890086 -80.2496405 109.8890086 -79 107 C-79.50918546 104.29995059 -79.50918546 104.29995059 -81 102 C-81.35320312 101.319375 -81.70640625 100.63875 -82.0703125 99.9375 C-82.41835937 99.298125 -82.76640625 98.65875 -83.125 98 C-84.70960043 94.86627527 -85.63012017 92.57068098 -85 89 C-82.61414808 86.61414808 -82.0325598 86.75174571 -78.78125 86.640625 C-68.42805146 86.26632788 -68.42805146 86.26632788 -59.83984375 81.25390625 C-57.63767915 78.36020566 -55.87021715 75.23071939 -54.14501953 72.03515625 C-52.13506917 68.46267304 -49.72989407 65.16307948 -47.375 61.8125 C-46.45326873 60.46824144 -45.53267077 59.12320501 -44.61328125 57.77734375 C-41.70795848 53.55499806 -38.69421529 49.41571301 -35.66015625 45.28515625 C-33.68967653 42.57284888 -31.82414071 39.81221693 -30 37 C-30.59167969 36.96261719 -31.18335937 36.92523438 -31.79296875 36.88671875 C-40.4223487 36.16877686 -40.4223487 36.16877686 -44 33 C-47.05551184 28.45693634 -48.55586434 24.55864343 -48 19 C-40.08814719 16.38219346 -31.83704996 15.61058766 -23.60742188 14.5 C-22.43373047 14.335 -21.26003906 14.17 -20.05078125 14 C-18.98512939 13.855625 -17.91947754 13.71125 -16.8215332 13.5625 C-11.66397463 12.53429069 -9.4964181 10.71542181 -6.4375 6.5 C-4.34181614 3.62485243 -3.00188066 2.00125378 0 0 Z " fill="#E30913" transform="translate(127,141)"/>
<path d="M0 0 C5.65739919 1.24403542 13.87624335 4.5527551 17.23828125 9.4921875 C18.30821787 17.45604562 12.92853154 23.78496347 8.4609375 29.94140625 C4.912981 34.29388803 1.82758106 37.07117907 -3.76171875 38.4921875 C-9.72529029 38.61563723 -14.62193527 37.65513118 -19.76171875 34.4921875 C-20.76171875 33.4921875 -20.76171875 33.4921875 -20.99536133 30.7878418 C-20.73198169 27.07273026 -19.81100706 25.00992694 -18.0234375 21.76171875 C-17.45044922 20.71177734 -16.87746094 19.66183594 -16.28710938 18.58007812 C-15.68060547 17.49919922 -15.07410156 16.41832031 -14.44921875 15.3046875 C-13.85431641 14.21220703 -13.25941406 13.11972656 -12.64648438 11.99414062 C-5.90679171 -0.22767077 -5.90679171 -0.22767077 0 0 Z " fill="#E30914" transform="translate(468.76171875,274.5078125)"/>
<path d="M0 0 C5.73726652 1.07245636 9.46497484 5.03528734 13.48828125 9.05859375 C15.38942856 12.2271726 15.38208646 13.90118444 14.98828125 17.55859375 C9.91734302 25.42274382 2.34437947 30.93752441 -5.94921875 34.99609375 C-11.61065519 36.03594942 -17.18038056 35.77948587 -22.01171875 32.55859375 C-21.54065327 27.55352306 -20.15333688 24.94198283 -17.01171875 21.05859375 C-14.33704246 17.67378878 -11.83559842 14.37275947 -9.625 10.66796875 C-9.23892578 10.02537109 -8.85285156 9.38277344 -8.45507812 8.72070312 C-7.71342343 7.46667904 -6.98872419 6.20243753 -6.28320312 4.92773438 C-4.44088283 1.84559172 -3.60591488 0.66880133 0 0 Z " fill="#E20913" transform="translate(205.01171875,171.44140625)"/>
<path d="M0 0 C-1.98 0.99 -1.98 0.99 -4 2 C-4 2.66 -4 3.32 -4 4 C-4.804375 4.28875 -5.60875 4.5775 -6.4375 4.875 C-9.1326468 5.73262568 -9.1326468 5.73262568 -10 8 C-13.6128101 9.44512404 -16.06687842 10 -20 10 C-20 10.66 -20 11.32 -20 12 C-19.34 12 -18.68 12 -18 12 C-18 12.66 -18 13.32 -18 14 C-12.06 14 -6.12 14 0 14 C-0.33 15.32 -0.66 16.64 -1 18 C-2.32 18.33 -3.64 18.66 -5 19 C-4.67 18.34 -4.34 17.68 -4 17 C-4.56396484 17.06058594 -5.12792969 17.12117188 -5.70898438 17.18359375 C-8.30555006 17.46005038 -10.90274897 17.73006099 -13.5 18 C-14.386875 18.09539062 -15.27375 18.19078125 -16.1875 18.2890625 C-21.48503888 18.83439739 -26.675788 19.29744201 -32 19 C-35.69984527 15.77449387 -36.55278157 12.80759817 -37 8 C-29.9733855 5.55723978 -22.89861011 3.57156797 -15.6875 1.75 C-14.61693359 1.46898437 -13.54636719 1.18796875 -12.44335938 0.8984375 C-11.41404297 0.63804687 -10.38472656 0.37765625 -9.32421875 0.109375 C-8.39697998 -0.12813477 -7.46974121 -0.36564453 -6.5144043 -0.61035156 C-3.96023836 -1.00616172 -2.42250774 -0.82724968 0 0 Z " fill="#DF0A14" transform="translate(418,224)"/>
<path d="M0 0 C3.69751137 -0.35214394 5.87632463 -0.05367044 9.3125 1.4375 C12.49491873 4.47189925 13.16793513 6.07147564 13.3515625 10.38671875 C11.99249784 20.48909938 4.16861619 29.26866771 -2 37 C-2.66 36.67 -3.32 36.34 -4 36 C-4 35.01 -4 34.02 -4 33 C-3.34 33 -2.68 33 -2 33 C-2 32.34 -2 31.68 -2 31 C-1.34 31 -0.68 31 0 31 C0 30.34 0 29.68 0 29 C-0.66 29 -1.32 29 -2 29 C-2 27.68 -2 26.36 -2 25 C-0.68 25 0.64 25 2 25 C2 24.34 2 23.68 2 23 C3.32 23 4.64 23 6 23 C6 22.34 6 21.68 6 21 C5.34 21 4.68 21 4 21 C4 18.36 4 15.72 4 13 C4.66 13 5.32 13 6 13 C6 12.34 6 11.68 6 11 C5.34 11 4.68 11 4 11 C4 10.34 4 9.68 4 9 C3.34 8.67 2.68 8.34 2 8 C2.04125 7.05125 2.0825 6.1025 2.125 5.125 C2.34973818 1.89755144 2.34973818 1.89755144 0 0 Z " fill="#DE0B13" transform="translate(178,223)"/>
<path d="M0 0 C1.27230469 0.00902344 2.54460937 0.01804688 3.85546875 0.02734375 C5.31919922 0.04474609 5.31919922 0.04474609 6.8125 0.0625 C7.8125 3.0625 7.8125 3.0625 6.7734375 5.18359375 C1.46840917 12.93207109 -2.53828273 16.18182082 -11.6640625 18.64453125 C-14.1875 19.0625 -14.1875 19.0625 -17.1875 18.0625 C-16.5275 17.4025 -15.8675 16.7425 -15.1875 16.0625 C-13.8675 16.0625 -12.5475 16.0625 -11.1875 16.0625 C-11.1875 15.4025 -11.1875 14.7425 -11.1875 14.0625 C-10.5275 14.0625 -9.8675 14.0625 -9.1875 14.0625 C-9.1875 12.7425 -9.1875 11.4225 -9.1875 10.0625 C-8.5275 10.0625 -7.8675 10.0625 -7.1875 10.0625 C-7.1875 9.4025 -7.1875 8.7425 -7.1875 8.0625 C-5.8675 8.0625 -4.5475 8.0625 -3.1875 8.0625 C-3.1875 8.7225 -3.1875 9.3825 -3.1875 10.0625 C-3.8475 10.0625 -4.5075 10.0625 -5.1875 10.0625 C-5.1875 11.3825 -5.1875 12.7025 -5.1875 14.0625 C-4.5275 14.0625 -3.8675 14.0625 -3.1875 14.0625 C-3.1875 13.4025 -3.1875 12.7425 -3.1875 12.0625 C-2.5275 12.0625 -1.8675 12.0625 -1.1875 12.0625 C-1.1875 11.4025 -1.1875 10.7425 -1.1875 10.0625 C-0.5275 10.0625 0.1325 10.0625 0.8125 10.0625 C0.8125 8.0825 0.8125 6.1025 0.8125 4.0625 C-2.4875 4.0625 -5.7875 4.0625 -9.1875 4.0625 C-9.5175 3.0725 -9.8475 2.0825 -10.1875 1.0625 C-6.62704823 -0.12431726 -3.74941663 -0.03439832 0 0 Z " fill="#E00C12" transform="translate(207.1875,145.9375)"/>
<path d="M0 0 C0 0.99 0 1.98 0 3 C-1.32 3 -2.64 3 -4 3 C-4 2.34 -4 1.68 -4 1 C-5.32 1 -6.64 1 -8 1 C-8 1.66 -8 2.32 -8 3 C-7.34 3 -6.68 3 -6 3 C-6 3.66 -6 4.32 -6 5 C-5.34 5 -4.68 5 -4 5 C-4 6.32 -4 7.64 -4 9 C-5.98 9 -7.96 9 -10 9 C-10 10.32 -10 11.64 -10 13 C-8.02 13 -6.04 13 -4 13 C-3.34 14.65 -2.68 16.3 -2 18 C-5.87125927 17.72991214 -7.70589359 17.24063252 -10.75 14.75 C-14.4895644 10.17942129 -15.2730129 6.8697773 -15 1 C-9.4584498 -0.96263236 -5.79141983 -1.01603857 0 0 Z " fill="#D10915" transform="translate(94,159)"/>
<path d="M0 0 C0.75 1.625 0.75 1.625 1 4 C-1.07575149 9.30469826 -4.22917782 10.85165467 -9.3125 13.25 C-13.81831469 15.18831218 -18.22352796 16.88919255 -23 18 C-22.505 16.515 -22.505 16.515 -22 15 C-21.34 15 -20.68 15 -20 15 C-20 14.34 -20 13.68 -20 13 C-16.7 12.34 -13.4 11.68 -10 11 C-10 10.34 -10 9.68 -10 9 C-11.32 9 -12.64 9 -14 9 C-14 8.34 -14 7.68 -14 7 C-12.02 7 -10.04 7 -8 7 C-8 7.66 -8 8.32 -8 9 C-7.34 9 -6.68 9 -6 9 C-6 7.68 -6 6.36 -6 5 C-7.32 5 -8.64 5 -10 5 C-10.33 3.68 -10.66 2.36 -11 1 C-7.26562152 0.12132271 -3.83225427 -0.08912219 0 0 Z " fill="#CA0C14" transform="translate(434,287)"/>
<path d="M0 0 C0 1.32 0 2.64 0 4 C0.66 4 1.32 4 2 4 C2 5.32 2 6.64 2 8 C2.66 8 3.32 8 4 8 C4 8.66 4 9.32 4 10 C-5.16062118 17.48332435 -13.17268507 22.19712192 -25 22 C-21.5647952 19.70986347 -20.014669 19.82157027 -16 20 C-16 19.34 -16 18.68 -16 18 C-14.68 18 -13.36 18 -12 18 C-12 17.34 -12 16.68 -12 16 C-10.68 16 -9.36 16 -8 16 C-8 15.34 -8 14.68 -8 14 C-6.68 14 -5.36 14 -4 14 C-4 13.34 -4 12.68 -4 12 C-3.34 12 -2.68 12 -2 12 C-2 11.34 -2 10.68 -2 10 C-1.34 10 -0.68 10 0 10 C0 9.34 0 8.68 0 8 C-0.66 8 -1.32 8 -2 8 C-2.66 6.68 -3.32 5.36 -4 4 C-4.66 4 -5.32 4 -6 4 C-6 4.66 -6 5.32 -6 6 C-7.98 6 -9.96 6 -12 6 C-12.33 5.34 -12.66 4.68 -13 4 C-11.39850114 3.32694982 -9.79368971 2.66177773 -8.1875 2 C-7.29417969 1.62875 -6.40085938 1.2575 -5.48046875 0.875 C-3 0 -3 0 0 0 Z " fill="#CC0D17" transform="translate(168,294)"/>
<path d="M0 0 C0.65844727 1.73339844 0.65844727 1.73339844 1 4 C0.01538086 6.07128906 0.01538086 6.07128906 -1.53515625 8.265625 C-2.09783203 9.07386719 -2.66050781 9.88210937 -3.24023438 10.71484375 C-3.84158203 11.55144531 -4.44292969 12.38804687 -5.0625 13.25 C-5.63677734 14.07113281 -6.21105469 14.89226562 -6.80273438 15.73828125 C-10.43257705 20.90272483 -14.18263507 25.97297431 -18 31 C-19.32 30.67 -20.64 30.34 -22 30 C-22 29.34 -22 28.68 -22 28 C-20.68 28 -19.36 28 -18 28 C-18 27.34 -18 26.68 -18 26 C-19.32 26 -20.64 26 -22 26 C-22 25.34 -22 24.68 -22 24 C-21.34 24 -20.68 24 -20 24 C-20 23.34 -20 22.68 -20 22 C-19.34 22 -18.68 22 -18 22 C-18 20.68 -18 19.36 -18 18 C-17.34 18 -16.68 18 -16 18 C-16 19.32 -16 20.64 -16 22 C-15.34 22 -14.68 22 -14 22 C-14 20.68 -14 19.36 -14 18 C-13.34 18 -12.68 18 -12 18 C-12 17.34 -12 16.68 -12 16 C-11.34 16 -10.68 16 -10 16 C-10 15.34 -10 14.68 -10 14 C-9.34 14 -8.68 14 -8 14 C-7.34 12.02 -6.68 10.04 -6 8 C-5.34 8 -4.68 8 -4 8 C-3.34 6.02 -2.68 4.04 -2 2 C-1.34 2 -0.68 2 0 2 C0 1.34 0 0.68 0 0 Z " fill="#E00B15" transform="translate(132,186)"/>
<path d="M0 0 C0.61035156 1.77661133 0.61035156 1.77661133 1 4 C-0.32538261 6.68302011 -1.69207076 9.14712211 -3.25 11.6875 C-6.59563061 17.35200537 -9.28669365 22.60365628 -11 29 C-10.34 29.33 -9.68 29.66 -9 30 C-9.33 30.66 -9.66 31.32 -10 32 C-11.32 32 -12.64 32 -14 32 C-14 29.36 -14 26.72 -14 24 C-14.66 23.67 -15.32 23.34 -16 23 C-16 22.01 -16 21.02 -16 20 C-14.68 20 -13.36 20 -12 20 C-12 19.34 -12 18.68 -12 18 C-11.34 18 -10.68 18 -10 18 C-10 17.34 -10 16.68 -10 16 C-9.34 16 -8.68 16 -8 16 C-8 14.68 -8 13.36 -8 12 C-7.34 12 -6.68 12 -6 12 C-6 10.02 -6 8.04 -6 6 C-4.68 6 -3.36 6 -2 6 C-2 4.68 -2 3.36 -2 2 C-1.34 2 -0.68 2 0 2 C0 1.34 0 0.68 0 0 Z " fill="#D20C18" transform="translate(216,268)"/>
<path d="M0 0 C0.99 0.99 1.98 1.98 3 3 C-4.72036745 13.9305546 -4.72036745 13.9305546 -10.875 15.9375 C-16.27191019 16.0454382 -21.05257628 13.63162982 -25 10 C-25 9.34 -25 8.68 -25 8 C-24.01 8 -23.02 8 -22 8 C-22 8.66 -22 9.32 -22 10 C-20.68 10 -19.36 10 -18 10 C-18 10.66 -18 11.32 -18 12 C-17.34 12 -16.68 12 -16 12 C-16 12.66 -16 13.32 -16 14 C-15.34 14 -14.68 14 -14 14 C-14 13.34 -14 12.68 -14 12 C-12.35 11.67 -10.7 11.34 -9 11 C-8.67 8.69 -8.34 6.38 -8 4 C-6.68 4 -5.36 4 -4 4 C-4.66 5.98 -5.32 7.96 -6 10 C-5.34 10 -4.68 10 -4 10 C-3.34 8.02 -2.68 6.04 -2 4 C-1.34 4 -0.68 4 0 4 C0 2.68 0 1.36 0 0 Z " fill="#DD0E19" transform="translate(250,298)"/>
<path d="M0 0 C0.33 0.99 0.66 1.98 1 3 C0.01 3.66 -0.98 4.32 -2 5 C-2.73343428 8.06556598 -2.73343428 8.06556598 -3 11 C-2.34 11 -1.68 11 -1 11 C-1 11.66 -1 12.32 -1 13 C-0.34 13 0.32 13 1 13 C1 11.68 1 10.36 1 9 C1.66 9 2.32 9 3 9 C3 10.32 3 11.64 3 13 C4.65 13 6.3 13 8 13 C6.8125 14.51171875 6.8125 14.51171875 5 16 C2.625 16.14453125 2.625 16.14453125 0 15.8125 C-0.86625 15.71582031 -1.7325 15.61914062 -2.625 15.51953125 C-5 15 -5 15 -8 13 C-7.55074862 8.17054764 -6.45263456 5.45263456 -3 2 C-2.01 2 -1.02 2 0 2 C0 1.34 0 0.68 0 0 Z " fill="#E20918" transform="translate(191,191)"/>
<path d="M0 0 C3.83953399 1.27984466 5.65316744 3.81501296 8 7 C6.02 7 4.04 7 2 7 C2 7.66 2 8.32 2 9 C1.01 9 0.02 9 -1 9 C-1 9.66 -1 10.32 -1 11 C-2.32 11 -3.64 11 -5 11 C-5 10.34 -5 9.68 -5 9 C-5.99 8.67 -6.98 8.34 -8 8 C-7.04578192 6.85073734 -6.08647955 5.70569459 -5.125 4.5625 C-4.59132813 3.92441406 -4.05765625 3.28632813 -3.5078125 2.62890625 C-2 1 -2 1 0 0 Z " fill="#E30916" transform="translate(127,141)"/>
<path d="M0 0 C0.33 0.66 0.66 1.32 1 2 C1.66 2 2.32 2 3 2 C3 2.66 3 3.32 3 4 C8.94 4 14.88 4 21 4 C21 3.34 21 2.68 21 2 C21.66 2 22.32 2 23 2 C23 2.66 23 3.32 23 4 C23.99 4.33 24.98 4.66 26 5 C22.37101003 8.62898997 17.34202944 8.10458268 12.4375 8.25 C6.84070059 8.20437392 3.95733455 6.95733455 0 3 C0 2.01 0 1.02 0 0 Z " fill="#D00E1A" transform="translate(363,306)"/>
<path d="M0 0 C1.32 0 2.64 0 4 0 C4 1.32 4 2.64 4 4 C4.66 4 5.32 4 6 4 C6 5.32 6 6.64 6 8 C10.29 8.33 14.58 8.66 19 9 C18.67 9.66 18.34 10.32 18 11 C11.01162192 11.4624662 4.7134643 11.56771612 -1 7 C-1.33 6.01 -1.66 5.02 -2 4 C-2.66 4 -3.32 4 -4 4 C-3.67 3.01 -3.34 2.02 -3 1 C-2.01 1.33 -1.02 1.66 0 2 C0 1.34 0 0.68 0 0 Z " fill="#D70A15" transform="translate(182,306)"/>
<path d="M0 0 C0.33 0 0.66 0 1 0 C0.61071126 6.07290435 -1.21893561 9.46500921 -4.875 14.25 C-5.32230469 14.86101562 -5.76960937 15.47203125 -6.23046875 16.1015625 C-8.31751585 18.92123085 -10.40558659 21.62894668 -13 24 C-13.33 22.68 -13.66 21.36 -14 20 C-13.34 20 -12.68 20 -12 20 C-12 19.34 -12 18.68 -12 18 C-11.34 18 -10.68 18 -10 18 C-10 17.34 -10 16.68 -10 16 C-10.66 16 -11.32 16 -12 16 C-12 14.68 -12 13.36 -12 12 C-10.68 12 -9.36 12 -8 12 C-8 11.34 -8 10.68 -8 10 C-6.68 10 -5.36 10 -4 10 C-3.34 7.36 -2.68 4.72 -2 2 C-1.34 2 -0.68 2 0 2 C0 1.34 0 0.68 0 0 Z " fill="#D00D12" transform="translate(188,236)"/>
<path d="M0 0 C0.33 0 0.66 0 1 0 C1 1.98 1 3.96 1 6 C1.66 6 2.32 6 3 6 C3 7.32 3 8.64 3 10 C2.34 10 1.68 10 1 10 C1 11.32 1 12.64 1 14 C-0.32 14 -1.64 14 -3 14 C-3 13.34 -3 12.68 -3 12 C-3.66 12 -4.32 12 -5 12 C-5 13.32 -5 14.64 -5 16 C-5.99 16 -6.98 16 -8 16 C-7.43102154 11.67734423 -5.87210245 8.81856666 -3.5 5.1875 C-2.8709375 4.21167969 -2.241875 3.23585938 -1.59375 2.23046875 C-0.80484375 1.12638672 -0.80484375 1.12638672 0 0 Z " fill="#D50B15" transform="translate(29,276)"/>
<path d="M0 0 C0.99 0.495 0.99 0.495 2 1 C2 1.99 2 2.98 2 4 C2.66 4 3.32 4 4 4 C4 4.66 4 5.32 4 6 C9.28 6.66 14.56 7.32 20 8 C20 7.34 20 6.68 20 6 C21.65 6 23.3 6 25 6 C22.59540886 8.78426342 20.57783015 10.08651145 17 11 C11.04732721 11.0099543 6.14126127 10.16385309 1 7 C0 6 0 6 -0.0625 2.9375 C-0.041875 1.968125 -0.02125 0.99875 0 0 Z " fill="#CB0E1B" transform="translate(448,302)"/>
<path d="M0 0 C1.35158203 0.15275391 1.35158203 0.15275391 2.73046875 0.30859375 C3.41753906 0.39238281 4.10460937 0.47617188 4.8125 0.5625 C4.4825 1.2225 4.1525 1.8825 3.8125 2.5625 C1.8325 2.5625 -0.1475 2.5625 -2.1875 2.5625 C-2.1875 3.2225 -2.1875 3.8825 -2.1875 4.5625 C-1.1975 4.8925 -0.2075 5.2225 0.8125 5.5625 C-0.1875 6.5625 -0.1875 6.5625 -2.03515625 6.66015625 C-4.0859375 6.62760417 -6.13671875 6.59505208 -8.1875 6.5625 C-8.1875 5.9025 -8.1875 5.2425 -8.1875 4.5625 C-9.5075 4.2325 -10.8275 3.9025 -12.1875 3.5625 C-7.98041724 0.22584815 -5.33051375 -0.62304706 0 0 Z " fill="#E90810" transform="translate(360.1875,239.4375)"/>
<path d="M0 0 C0.73828125 1.70703125 0.73828125 1.70703125 1 4 C-0.58203125 6.32421875 -0.58203125 6.32421875 -2.8125 8.6875 C-3.54082031 9.47511719 -4.26914062 10.26273437 -5.01953125 11.07421875 C-7.72286249 13.70290179 -8.59650649 13.97065502 -12.4375 14.25 C-16 14 -16 14 -17.9375 12.5 C-18.288125 12.005 -18.63875 11.51 -19 11 C-17.35 10.67 -15.7 10.34 -14 10 C-14 10.66 -14 11.32 -14 12 C-12.8553125 11.505 -12.8553125 11.505 -11.6875 11 C-9 10 -9 10 -6 10 C-5.87625 9.401875 -5.7525 8.80375 -5.625 8.1875 C-5 6 -5 6 -3 3 C-2.01 2.67 -1.02 2.34 0 2 C0 1.34 0 0.68 0 0 Z " fill="#C90D19" transform="translate(302,300)"/>
<path d="M0 0 C0.99 0 1.98 0 3 0 C4.43304064 2.86608129 4.30644155 4.81300783 4 8 C2.0475001 11.43370673 -0.06060974 14.35454877 -3 17 C-3.99 16.67 -4.98 16.34 -6 16 C-5.34 16 -4.68 16 -4 16 C-4 15.34 -4 14.68 -4 14 C-3.34 14 -2.68 14 -2 14 C-2 12.68 -2 11.36 -2 10 C-1.34 10 -0.68 10 0 10 C0 6.7 0 3.4 0 0 Z " fill="#CF0D1C" transform="translate(454,232)"/>
<path d="M0 0 C0.33 0.99 0.66 1.98 1 3 C-0.32 3 -1.64 3 -3 3 C-3 3.66 -3 4.32 -3 5 C-3.66 5 -4.32 5 -5 5 C-5 7.64 -5 10.28 -5 13 C-5.66 13 -6.32 13 -7 13 C-8.58969234 9.52254801 -9.41465662 6.83557374 -9 3 C-6.15236477 0.15236477 -3.96383452 0 0 0 Z " fill="#D10B19" transform="translate(51,227)"/>
<path d="M0 0 C1.32 0.66 2.64 1.32 4 2 C0.25435591 4.30201043 -3.7215381 4.7229431 -8 5.25 C-8.7115625 5.353125 -9.423125 5.45625 -10.15625 5.5625 C-14.03277115 6.05429746 -16.716936 6.29130508 -20 4 C-18.68 4 -17.36 4 -16 4 C-16 3.34 -16 2.68 -16 2 C-10.72 2 -5.44 2 0 2 C0 1.34 0 0.68 0 0 Z " fill="#C10E16" transform="translate(36,314)"/>
<path d="M0 0 C0.58984375 1.859375 0.58984375 1.859375 1 4 C-0.4375 6.25 -0.4375 6.25 -2 8 C-4 6 -4 6 -6 3 C-8.33294775 2.95758277 -10.66702567 2.95907063 -13 3 C-13.99 2.34 -14.98 1.68 -16 1 C-10.61509359 0.08342019 -5.45769811 -0.11138159 0 0 Z " fill="#C70B11" transform="translate(158,217)"/>
<path d="M0 0 C0.67163086 1.71582031 0.67163086 1.71582031 1 4 C-0.07983398 6.19824219 -0.07983398 6.19824219 -1.74609375 8.546875 C-2.33583984 9.39121094 -2.92558594 10.23554688 -3.53320312 11.10546875 C-4.16162109 11.97816406 -4.79003906 12.85085937 -5.4375 13.75 C-6.37432617 15.08224609 -6.37432617 15.08224609 -7.33007812 16.44140625 C-8.8756169 18.63583534 -10.43242599 20.82128417 -12 23 C-13.04449911 19.86650268 -12.93423645 19.01031744 -12 16 C-11.34 16 -10.68 16 -10 16 C-10 15.34 -10 14.68 -10 14 C-9.34 14 -8.68 14 -8 14 C-7.34 12.02 -6.68 10.04 -6 8 C-5.34 8 -4.68 8 -4 8 C-3.34 6.02 -2.68 4.04 -2 2 C-1.34 2 -0.68 2 0 2 C0 1.34 0 0.68 0 0 Z " fill="#BC0D1B" transform="translate(132,186)"/>
<path d="M0 0 C1.32 0.66 2.64 1.32 4 2 C3.40832031 2.71285156 2.81664062 3.42570312 2.20703125 4.16015625 C-3.06391153 10.52232963 -3.06391153 10.52232963 -7.9375 17.1875 C-8.618125 18.115625 -9.29875 19.04375 -10 20 C-10.66 20 -11.32 20 -12 20 C-11.625 18.0625 -11.625 18.0625 -11 16 C-10.34 15.67 -9.68 15.34 -9 15 C-8.67 14.01 -8.34 13.02 -8 12 C-7.34 12 -6.68 12 -6 12 C-5.814375 11.0409375 -5.814375 11.0409375 -5.625 10.0625 C-5.41875 9.381875 -5.2125 8.70125 -5 8 C-4.34 7.67 -3.68 7.34 -3 7 C-2.67 6.01 -2.34 5.02 -2 4 C-1.34 4 -0.68 4 0 4 C0 2.68 0 1.36 0 0 Z " fill="#C10A18" transform="translate(316,280)"/>
<path d="M0 0 C0.66 0 1.32 0 2 0 C2.07347656 1.26457031 2.07347656 1.26457031 2.1484375 2.5546875 C2.22320312 3.65039062 2.29796875 4.74609375 2.375 5.875 C2.44460938 6.96554687 2.51421875 8.05609375 2.5859375 9.1796875 C2.73253491 12.13046474 2.73253491 12.13046474 5 14 C4.67 14.66 4.34 15.32 4 16 C3.01 16 2.02 16 1 16 C-0.86131271 12.83650409 -1.24746869 10.52763845 -1.1875 6.875 C-1.17783203 5.57175781 -1.17783203 5.57175781 -1.16796875 4.2421875 C-1 2 -1 2 0 0 Z " fill="#D60919" transform="translate(274,289)"/>
<path d="M0 0 C1.32 0 2.64 0 4 0 C4 0.66 4 1.32 4 2 C5.65 2 7.3 2 9 2 C6.03 6.95 6.03 6.95 3 12 C2.01 11.34 1.02 10.68 0 10 C0.66 10 1.32 10 2 10 C2 7.36 2 4.72 2 2 C1.34 2 0.68 2 0 2 C0 1.34 0 0.68 0 0 Z " fill="#D30B14" transform="translate(166,258)"/>
<path d="M0 0 C0.33 0.99 0.66 1.98 1 3 C1.66 3 2.32 3 3 3 C3 3.66 3 4.32 3 5 C1.68 5 0.36 5 -1 5 C-1 7.31 -1 9.62 -1 12 C-1.99 12.495 -1.99 12.495 -3 13 C-3 12.34 -3 11.68 -3 11 C-3.66 11 -4.32 11 -5 11 C-5 11.66 -5 12.32 -5 13 C-5.99 12.67 -6.98 12.34 -8 12 C-5.36 8.04 -2.72 4.08 0 0 Z " fill="#D20E18" transform="translate(197,243)"/>
<path d="M0 0 C0.33 0.99 0.66 1.98 1 3 C-0.36328125 5.69921875 -0.36328125 5.69921875 -2.3125 8.6875 C-2.94800781 9.68136719 -3.58351562 10.67523438 -4.23828125 11.69921875 C-4.81964844 12.45847656 -5.40101563 13.21773438 -6 14 C-6.66 14 -7.32 14 -8 14 C-8 12.68 -8 11.36 -8 10 C-7.34 10 -6.68 10 -6 10 C-6 7.36 -6 4.72 -6 2 C-5.34 2 -4.68 2 -4 2 C-4 2.66 -4 3.32 -4 4 C-3.34 4 -2.68 4 -2 4 C-2 3.34 -2 2.68 -2 2 C-1.34 2 -0.68 2 0 2 C0 1.34 0 0.68 0 0 Z " fill="#DB0C1B" transform="translate(226,254)"/>
<path d="M0 0 C1.953125 0.7109375 1.953125 0.7109375 4 2 C4.609375 4.1640625 4.609375 4.1640625 4.75 6.625 C4.80671875 7.44226563 4.8634375 8.25953125 4.921875 9.1015625 C4.94765625 9.72804687 4.9734375 10.35453125 5 11 C4.67 10.34 4.34 9.68 4 9 C2.68 9 1.36 9 0 9 C0 7.68 0 6.36 0 5 C-0.66 5 -1.32 5 -2 5 C-2 4.34 -2 3.68 -2 3 C-1.34 2.67 -0.68 2.34 0 2 C0 1.34 0 0.68 0 0 Z " fill="#D4060D" transform="translate(186,225)"/>
<path d="M0 0 C0 0.99 0 1.98 0 3 C-5.94 3 -11.88 3 -18 3 C-18.33 2.34 -18.66 1.68 -19 1 C-12.63849395 0.34513908 -6.39628979 -0.12068471 0 0 Z " fill="#BB0C15" transform="translate(192,147)"/>
<path d="M0 0 C3.83953399 1.27984466 5.65316744 3.81501296 8 7 C7.01 7 6.02 7 5 7 C5 6.34 5 5.68 5 5 C4.34 5 3.68 5 3 5 C3 4.34 3 3.68 3 3 C1.68 3 0.36 3 -1 3 C-1 3.66 -1 4.32 -1 5 C-1.66 5 -2.32 5 -3 5 C-3 5.66 -3 6.32 -3 7 C-3.66 7 -4.32 7 -5 7 C-5 7.66 -5 8.32 -5 9 C-5.99 8.67 -6.98 8.34 -8 8 C-7.04578192 6.85073734 -6.08647955 5.70569459 -5.125 4.5625 C-4.59132813 3.92441406 -4.05765625 3.28632813 -3.5078125 2.62890625 C-2 1 -2 1 0 0 Z " fill="#B30B1A" transform="translate(127,141)"/>
<path d="M0 0 C1.32 0.33 2.64 0.66 4 1 C4 1.99 4 2.98 4 4 C2.68 4 1.36 4 0 4 C0 4.66 0 5.32 0 6 C-0.66 6 -1.32 6 -2 6 C-2.12375 6.763125 -2.2475 7.52625 -2.375 8.3125 C-3 11 -3 11 -5 14 C-5.66 14 -6.32 14 -7 14 C-5.53967505 8.68972746 -3.01679014 4.53669968 0 0 Z " fill="#C90A18" transform="translate(456,288)"/>
<path d="M0 0 C1.32 0.66 2.64 1.32 4 2 C2.57391198 4.00907998 1.13533968 6.00669514 -0.3125 8 C-0.71662109 8.57234375 -1.12074219 9.1446875 -1.53710938 9.734375 C-2.61900525 11.21208644 -3.80455549 12.61254109 -5 14 C-5.99 14 -6.98 14 -8 14 C-8 13.34 -8 12.68 -8 12 C-7.34 12 -6.68 12 -6 12 C-5.7834375 11.071875 -5.7834375 11.071875 -5.5625 10.125 C-5 8 -5 8 -4 6 C-3.34 6 -2.68 6 -2 6 C-2 5.34 -2 4.68 -2 4 C-1.34 4 -0.68 4 0 4 C0 2.68 0 1.36 0 0 Z " fill="#CE0D1F" transform="translate(62,282)"/>
<path d="M0 0 C0.33 0 0.66 0 1 0 C0.56764732 7.92646575 -2.08874767 14.52085676 -8 20 C-7.47731534 17.23723823 -6.89130413 14.6739124 -6 12 C-5.34 12 -4.68 12 -4 12 C-4 10.68 -4 9.36 -4 8 C-3.34 8 -2.68 8 -2 8 C-2 6.68 -2 5.36 -2 4 C-1.34 4 -0.68 4 0 4 C0 2.68 0 1.36 0 0 Z " fill="#A40E17" transform="translate(374,250)"/>
<path d="M0 0 C1.98 0.66 3.96 1.32 6 2 C6 3.32 6 4.64 6 6 C5.34 6 4.68 6 4 6 C4.33 7.65 4.66 9.3 5 11 C4.01 11 3.02 11 2 11 C0.80712589 7.12315913 0 4.08378077 0 0 Z " fill="#CF0A18" transform="translate(322,286)"/>
<path d="M0 0 C0.66 0 1.32 0 2 0 C2 1.32 2 2.64 2 4 C6.29 4.33 10.58 4.66 15 5 C14.67 5.66 14.34 6.32 14 7 C12.27119018 7.05449838 10.54187288 7.09301688 8.8125 7.125 C7.84957031 7.14820313 6.88664063 7.17140625 5.89453125 7.1953125 C2.87187222 6.9913544 0.73230015 6.26874632 -2 5 C-2 4.34 -2 3.68 -2 3 C-1.34 3 -0.68 3 0 3 C0 2.01 0 1.02 0 0 Z " fill="#98040C" transform="translate(186,310)"/>
<path d="M0 0 C0.99 0.33 1.98 0.66 3 1 C2.34 1 1.68 1 1 1 C1 1.66 1 2.32 1 3 C0.34 3 -0.32 3 -1 3 C-1 3.66 -1 4.32 -1 5 C-1.66 5 -2.32 5 -3 5 C-3 5.66 -3 6.32 -3 7 C-4.32 7 -5.64 7 -7 7 C-7 8.32 -7 9.64 -7 11 C-7.66 11 -8.32 11 -9 11 C-9 10.01 -9 9.02 -9 8 C-9.66 7.67 -10.32 7.34 -11 7 C-9.23754778 5.8000962 -7.46473019 4.61540483 -5.6875 3.4375 C-4.70136719 2.77621094 -3.71523438 2.11492187 -2.69921875 1.43359375 C-1.80847656 0.96050781 -0.91773438 0.48742187 0 0 Z " fill="#D80C1A" transform="translate(385,263)"/>
<path d="M0 0 C3 0.4375 3 0.4375 6 2.4375 C6 3.0975 6 3.7575 6 4.4375 C2.62182575 5.28204356 0.32534757 5.54594919 -3 4.4375 C-3 5.0975 -3 5.7575 -3 6.4375 C-3.99 6.1075 -4.98 5.7775 -6 5.4375 C-3.80267559 0.55455686 -3.80267559 0.55455686 0 0 Z " fill="#CE0C1A" transform="translate(205,171.5625)"/>
<path d="M0 0 C0 1.65 0 3.3 0 5 C-1.58246707 5.08153933 -3.16616273 5.13943557 -4.75 5.1875 C-6.07257813 5.23970703 -6.07257813 5.23970703 -7.421875 5.29296875 C-10.44671583 4.94923684 -11.75583602 3.99772541 -14 2 C-12.04200486 1.66468585 -10.08359226 1.33180857 -8.125 1 C-6.48917969 0.7215625 -6.48917969 0.7215625 -4.8203125 0.4375 C-2 0 -2 0 0 0 Z " fill="#C40B13" transform="translate(118,153)"/>
<path d="M0 0 C3.48221175 0.17411059 5.65214817 0.68551124 8.75 2.1875 C8.75 2.5175 8.75 2.8475 8.75 3.1875 C4.79 3.1875 0.83 3.1875 -3.25 3.1875 C-3.25 3.8475 -3.25 4.5075 -3.25 5.1875 C-4.24 5.1875 -5.23 5.1875 -6.25 5.1875 C-3.84731972 0.22196075 -3.84731972 0.22196075 0 0 Z " fill="#C60C15" transform="translate(467.25,274.8125)"/>
<path d="M0 0 C-1.98 0.99 -1.98 0.99 -4 2 C-4 2.66 -4 3.32 -4 4 C-7.63 4 -11.26 4 -15 4 C-11.58942065 0.58942065 -11.58942065 0.58942065 -8.0625 -0.25 C-7.39347656 -0.42015625 -6.72445313 -0.5903125 -6.03515625 -0.765625 C-3.76732882 -1.02679515 -2.16439531 -0.67788667 0 0 Z " fill="#CA0A18" transform="translate(418,224)"/>
<path d="M0 0 C1.32 0 2.64 0 4 0 C4.75 1.625 4.75 1.625 5 4 C3.25 7.25 3.25 7.25 1 10 C0.01 10 -0.98 10 -2 10 C-2 9.34 -2 8.68 -2 8 C-1.34 8 -0.68 8 0 8 C0 5.36 0 2.72 0 0 Z " fill="#CA0C19" transform="translate(478,292)"/>
<path d="M0 0 C1.4540625 0.0309375 1.4540625 0.0309375 2.9375 0.0625 C3.5625 1.875 3.5625 1.875 3.9375 4.0625 C2.9475 5.5475 2.9475 5.5475 1.9375 7.0625 C0.9475 7.0625 -0.0425 7.0625 -1.0625 7.0625 C-1.0625 5.4125 -1.0625 3.7625 -1.0625 2.0625 C-2.0525 1.7325 -3.0425 1.4025 -4.0625 1.0625 C-3.0625 0.0625 -3.0625 0.0625 0 0 Z " fill="#D70817" transform="translate(431.0625,286.9375)"/>
<path d="M0 0 C1 3 1 3 -0.43359375 6.13671875 C-1.09135973 7.3260128 -1.75977815 8.50946371 -2.4375 9.6875 C-2.77587891 10.29400391 -3.11425781 10.90050781 -3.46289062 11.52539062 C-4.29957915 13.0220025 -5.14862831 14.51169189 -6 16 C-6.87840996 12.90279155 -6.99435406 11.09354597 -6 8 C-5.34 8 -4.68 8 -4 8 C-4 6.68 -4 5.36 -4 4 C-3.34 4 -2.68 4 -2 4 C-2 3.34 -2 2.68 -2 2 C-1.34 2 -0.68 2 0 2 C0 1.34 0 0.68 0 0 Z " fill="#C60C1A" transform="translate(164,272)"/>
<path d="M0 0 C0.75 1.625 0.75 1.625 1 4 C-0.9375 7.25 -0.9375 7.25 -3 10 C-3.33 8.68 -3.66 7.36 -4 6 C-4.66 6 -5.32 6 -6 6 C-6 4.68 -6 3.36 -6 2 C-4.02 2 -2.04 2 0 2 C0 1.34 0 0.68 0 0 Z " fill="#D80D19" transform="translate(248,220)"/>
<path d="M0 0 C1.32 0 2.64 0 4 0 C4 0.66 4 1.32 4 2 C5.65 2 7.3 2 9 2 C8 5 8 5 5 7 C4.01 6.67 3.02 6.34 2 6 C2 4.68 2 3.36 2 2 C1.34 2 0.68 2 0 2 C0 1.34 0 0.68 0 0 Z " fill="#D60D17" transform="translate(434,252)"/>
<path d="M0 0 C0.66 0 1.32 0 2 0 C2 1.32 2 2.64 2 4 C3.65 4 5.3 4 7 4 C5.875 5.5 5.875 5.5 4 7 C1 7.375 1 7.375 -2 7 C-3.875 5.5 -3.875 5.5 -5 4 C-3.35 4 -1.7 4 0 4 C0 2.68 0 1.36 0 0 Z " fill="#A80D16" transform="translate(192,200)"/>
<path d="M0 0 C3 1 3 1 4.3125 2.9375 C5.34102274 7.51910131 4.13386296 11.50815828 3 16 C2.67 16 2.34 16 2 16 C2 11.71 2 7.42 2 3 C1.34 3 0.68 3 0 3 C0 2.01 0 1.02 0 0 Z " fill="#BE0B19" transform="translate(282,151)"/>
<path d="M0 0 C0.99 0.33 1.98 0.66 3 1 C3 1.99 3 2.98 3 4 C2.34 4 1.68 4 1 4 C0.67 5.32 0.34 6.64 0 8 C-0.99 8 -1.98 8 -3 8 C-3.33 8.66 -3.66 9.32 -4 10 C-4.33 9.34 -4.66 8.68 -5 8 C-4.00390625 6.0546875 -4.00390625 6.0546875 -2.5625 3.875 C-2.08941406 3.15054687 -1.61632812 2.42609375 -1.12890625 1.6796875 C-0.75636719 1.12539063 -0.38382813 0.57109375 0 0 Z " fill="#CF0C15" transform="translate(131,268)"/>
<path d="M0 0 C4.62 0 9.24 0 14 0 C14.33 0.99 14.66 1.98 15 3 C13.5625 5.1875 13.5625 5.1875 12 7 C12 5.35 12 3.7 12 2 C10.4221875 2.0309375 10.4221875 2.0309375 8.8125 2.0625 C5.67295096 2.01103198 3.03116604 1.73482813 0 1 C0 0.67 0 0.34 0 0 Z " fill="#AB1119" transform="translate(200,146)"/>
<path d="M0 0 C0.33 0.99 0.66 1.98 1 3 C0.34 3 -0.32 3 -1 3 C-1 4.32 -1 5.64 -1 7 C-1.66 7 -2.32 7 -3 7 C-3 7.66 -3 8.32 -3 9 C-5.31 9 -7.62 9 -10 9 C-10.33 8.34 -10.66 7.68 -11 7 C-9.9275 6.773125 -8.855 6.54625 -7.75 6.3125 C-3.62781299 4.86973455 -2.35585477 3.58089925 0 0 Z " fill="#D5111E" transform="translate(69,219)"/>
<path d="M0 0 C-0.33 1.32 -0.66 2.64 -1 4 C-2.32 4.33 -3.64 4.66 -5 5 C-4.67 4.34 -4.34 3.68 -4 3 C-6.64 3 -9.28 3 -12 3 C-8.2391768 -0.7608232 -5.0273023 -0.25136512 0 0 Z " fill="#B10B10" transform="translate(418,238)"/>
<path d="M0 0 C0.33 0 0.66 0 1 0 C1.25 2.25 1.25 2.25 1 5 C-0.875 7.3125 -0.875 7.3125 -3 9 C-3.66 9 -4.32 9 -5 9 C-5.66 10.32 -6.32 11.64 -7 13 C-7.33 12.01 -7.66 11.02 -8 10 C-6.3828125 7.51953125 -6.3828125 7.51953125 -4.125 4.8125 C-3.38507813 3.91144531 -2.64515625 3.01039063 -1.8828125 2.08203125 C-1.26148438 1.39496094 -0.64015625 0.70789063 0 0 Z " fill="#DF0E1C" transform="translate(301,251)"/>
<path d="M0 0 C0.99 0 1.98 0 3 0 C3 0.66 3 1.32 3 2 C5.97 2.33 8.94 2.66 12 3 C11.67 3.66 11.34 4.32 11 5 C3.5340751 5.36717663 3.5340751 5.36717663 1 3.625 C0 2 0 2 0 0 Z " fill="#9B050C" transform="translate(383,238)"/>
<path d="M0 0 C1.35158203 0.15275391 1.35158203 0.15275391 2.73046875 0.30859375 C3.41753906 0.39238281 4.10460937 0.47617188 4.8125 0.5625 C4.4825 1.2225 4.1525 1.8825 3.8125 2.5625 C0.1825 2.5625 -3.4475 2.5625 -7.1875 2.5625 C-7.5175 1.9025 -7.8475 1.2425 -8.1875 0.5625 C-4.98734144 -0.50421952 -3.30205706 -0.38595472 0 0 Z " fill="#A80A13" transform="translate(360.1875,239.4375)"/>
<path d="M0 0 C0.66 0 1.32 0 2 0 C2 0.66 2 1.32 2 2 C2.99 2 3.98 2 5 2 C4 5 4 5 2.29296875 6.01953125 C-3.44470153 8.180472 -3.44470153 8.180472 -6.5 7.1875 C-6.995 6.795625 -7.49 6.40375 -8 6 C-4.535 5.505 -4.535 5.505 -1 5 C-0.67 3.35 -0.34 1.7 0 0 Z " fill="#C90F19" transform="translate(146,228)"/>
<path d="M0 0 C5.65394631 -0.34615998 9.03006806 0.56574762 14 3 C13.67 3.66 13.34 4.32 13 5 C11.35 5 9.7 5 8 5 C8 4.34 8 3.68 8 3 C5.36 2.34 2.72 1.68 0 1 C0 0.67 0 0.34 0 0 Z " fill="#D00917" transform="translate(432,221)"/>
<path d="M0 0 C2.97 0.495 2.97 0.495 6 1 C6 2.32 6 3.64 6 5 C5.34 5 4.68 5 4 5 C4 5.66 4 6.32 4 7 C3.34 7 2.68 7 2 7 C2 6.34 2 5.68 2 5 C1.34 5 0.68 5 0 5 C0 3.35 0 1.7 0 0 Z " fill="#E70715" transform="translate(198,179)"/>
<path d="M0 0 C1.134375 0.020625 2.26875 0.04125 3.4375 0.0625 C-0.340719 3.28098285 -3.1348436 4.22285211 -8.10546875 3.89453125 C-10.59675086 3.65207925 -13.07923643 3.37592162 -15.5625 3.0625 C-15.5625 2.7325 -15.5625 2.4025 -15.5625 2.0625 C-14.78003906 2.00191406 -13.99757813 1.94132812 -13.19140625 1.87890625 C-12.17949219 1.79511719 -11.16757812 1.71132813 -10.125 1.625 C-9.11566406 1.54378906 -8.10632813 1.46257812 -7.06640625 1.37890625 C-3.58548689 0.93903968 -3.91624073 0.06870598 0 0 Z " fill="#C91420" transform="translate(352.5625,303.9375)"/>
<path d="M0 0 C0.33 0 0.66 0 1 0 C1.33 2.64 1.66 5.28 2 8 C0.35 8.33 -1.3 8.66 -3 9 C-3.33 6.69 -3.66 4.38 -4 2 C-3.01 2 -2.02 2 -1 2 C-0.67 1.34 -0.34 0.68 0 0 Z " fill="#C50B16" transform="translate(332,248)"/>
<path d="M0 0 C0.99 0.66 1.98 1.32 3 2 C0 4 0 4 -4 4 C-4 4.66 -4 5.32 -4 6 C-4.66 6 -5.32 6 -6 6 C-6 6.66 -6 7.32 -6 8 C-6.99 7.67 -7.98 7.34 -9 7 C-6.19195732 4.03595495 -3.81684226 1.55500981 0 0 Z " fill="#D60F1E" transform="translate(314,224)"/>
<path d="M0 0 C0.66 0.33 1.32 0.66 2 1 C1.47731534 3.76276177 0.89130413 6.3260876 0 9 C-0.66 9 -1.32 9 -2 9 C-2 8.34 -2 7.68 -2 7 C-2.66 7 -3.32 7 -4 7 C-2.79618552 4.50638429 -1.54571278 2.31856917 0 0 Z " fill="#D40B11" transform="translate(254,159)"/>
<path d="M0 0 C2.64 0.33 5.28 0.66 8 1 C6.68 1.33 5.36 1.66 4 2 C4 2.66 4 3.32 4 4 C4.66 4 5.32 4 6 4 C6 4.66 6 5.32 6 6 C3.36 6 0.72 6 -2 6 C-1.01 5.01 -0.02 4.02 1 3 C0.67 2.01 0.34 1.02 0 0 Z " fill="#D61017" transform="translate(392,292)"/>
<path d="M0 0 C0.66 0.99 1.32 1.98 2 3 C0.68 5.31 -0.64 7.62 -2 10 C-2.66 10 -3.32 10 -4 10 C-4 8.68 -4 7.36 -4 6 C-3.34 6 -2.68 6 -2 6 C-2 5.34 -2 4.68 -2 4 C-2.66 4 -3.32 4 -4 4 C-4 3.34 -4 2.68 -4 2 C-2.68 2 -1.36 2 0 2 C0 1.34 0 0.68 0 0 Z " fill="#C90F17" transform="translate(282,166)"/>
<path d="M0 0 C1.32 0.33 2.64 0.66 4 1 C1.54252536 3.45747464 0.4201354 3.5801489 -3 4 C-5.44043988 3.91677268 -7.87923369 3.76716726 -10.3125 3.5625 C-11.56675781 3.46066406 -12.82101563 3.35882813 -14.11328125 3.25390625 C-15.06589844 3.17011719 -16.01851562 3.08632813 -17 3 C-17 2.67 -17 2.34 -17 2 C-11.39 2 -5.78 2 0 2 C0 1.34 0 0.68 0 0 Z " fill="#C61121" transform="translate(204,312)"/>
<path d="M0 0 C1.32 0 2.64 0 4 0 C4 0.66 4 1.32 4 2 C3.34 2 2.68 2 2 2 C1.67 3.65 1.34 5.3 1 7 C-0.32 7 -1.64 7 -3 7 C-2.01 4.69 -1.02 2.38 0 0 Z " fill="#C50B18" transform="translate(220,286)"/>
<path d="M0 0 C0.66 0 1.32 0 2 0 C2 0.99 2 1.98 2 3 C1.34 3 0.68 3 0 3 C0 4.32 0 5.64 0 7 C0.66 7 1.32 7 2 7 C2 7.66 2 8.32 2 9 C0.68 9 -0.64 9 -2 9 C-2.6875 6.75 -2.6875 6.75 -3 4 C-1.6875 1.6875 -1.6875 1.6875 0 0 Z " fill="#CD0C1C" transform="translate(236,185)"/>
<path d="M0 0 C1.65 0 3.3 0 5 0 C4.01 0.495 4.01 0.495 3 1 C2.34444881 3.52733235 2.34444881 3.52733235 2 6 C0.35 5.67 -1.3 5.34 -3 5 C-3 4.34 -3 3.68 -3 3 C-2.34 3 -1.68 3 -1 3 C-0.67 2.01 -0.34 1.02 0 0 Z " fill="#DE0B1A" transform="translate(207,297)"/>
<path d="M0 0 C0.33 0 0.66 0 1 0 C0.58525633 5.28798182 -0.35224614 8.11690718 -4 12 C-5 10 -5 10 -4.44140625 8.0546875 C-4.15136719 7.33539063 -3.86132812 6.61609375 -3.5625 5.875 C-3.27503906 5.15054688 -2.98757812 4.42609375 -2.69140625 3.6796875 C-2.46324219 3.12539062 -2.23507813 2.57109375 -2 2 C-1.34 2 -0.68 2 0 2 C0 1.34 0 0.68 0 0 Z " fill="#B40D18" transform="translate(188,236)"/>
<path d="M0 0 C0.33 0.66 0.66 1.32 1 2 C2.32 2 3.64 2 5 2 C5 3.32 5 4.64 5 6 C3.68 6 2.36 6 1 6 C1 5.34 1 4.68 1 4 C0.34 4 -0.32 4 -1 4 C-1.33 4.66 -1.66 5.32 -2 6 C-1.125 1.125 -1.125 1.125 0 0 Z " fill="#D30E15" transform="translate(207,228)"/>
<path d="M0 0 C2.91517292 1.07401108 4.77810176 1.77810176 7 4 C2.545 4.495 2.545 4.495 -2 5 C-2 4.34 -2 3.68 -2 3 C-1.34 3 -0.68 3 0 3 C0 2.01 0 1.02 0 0 Z " fill="#CF091A" transform="translate(446,225)"/>
<path d="M0 0 C0.66 0 1.32 0 2 0 C2.66 1.32 3.32 2.64 4 4 C2.7260411 6.03833424 1.38938077 8.03852126 0 10 C-0.66 10 -1.32 10 -2 10 C-2 8.68 -2 7.36 -2 6 C-1.34 6 -0.68 6 0 6 C0 4.02 0 2.04 0 0 Z " fill="#CB0F19" transform="translate(240,228)"/>
<path d="M0 0 C0.8125 1.6875 0.8125 1.6875 1 4 C-1.1875 6.8125 -1.1875 6.8125 -4 9 C-6.3125 8.8125 -6.3125 8.8125 -8 8 C-7.34 8 -6.68 8 -6 8 C-6 7.34 -6 6.68 -6 6 C-5.34 6 -4.68 6 -4 6 C-4 5.34 -4 4.68 -4 4 C-3.34 4 -2.68 4 -2 4 C-2 3.34 -2 2.68 -2 2 C-1.34 2 -0.68 2 0 2 C0 1.34 0 0.68 0 0 Z " fill="#C80F1C" transform="translate(210,152)"/>
<path d="M0 0 C0.99 0 1.98 0 3 0 C3 0.66 3 1.32 3 2 C4.32 2 5.64 2 7 2 C7 2.66 7 3.32 7 4 C7.66 4 8.32 4 9 4 C9 4.99 9 5.98 9 7 C5.56072421 5.7580393 2.74792181 4.44259716 0 2 C0 1.34 0 0.68 0 0 Z " fill="#C10B19" transform="translate(225,306)"/>
<path d="M0 0 C2.64 0 5.28 0 8 0 C4.63576723 2.96052484 1.30840713 3.92289822 -3 5 C-2.67 4.01 -2.34 3.02 -2 2 C-1.34 2 -0.68 2 0 2 C0 1.34 0 0.68 0 0 Z " fill="#CF0F19" transform="translate(414,300)"/>
<path d="M0 0 C-0.33 0.99 -0.66 1.98 -1 3 C-1.66 3 -2.32 3 -3 3 C-3 3.66 -3 4.32 -3 5 C-4.98 5 -6.96 5 -9 5 C-9.33 4.34 -9.66 3.68 -10 3 C-8.70990357 2.49596232 -7.41786211 1.99690074 -6.125 1.5 C-5.04605469 1.08234375 -5.04605469 1.08234375 -3.9453125 0.65625 C-2 0 -2 0 0 0 Z " fill="#BC0A1A" transform="translate(165,295)"/>
<path d="M0 0 C0.66 0 1.32 0 2 0 C2 1.32 2 2.64 2 4 C1.34 4 0.68 4 0 4 C0 4.66 0 5.32 0 6 C-0.66 6 -1.32 6 -2 6 C-2 6.66 -2 7.32 -2 8 C-3.32 7.67 -4.64 7.34 -6 7 C-5 5 -5 5 -3 4.0625 C-0.65391779 3.1108154 -0.65391779 3.1108154 0 0 Z " fill="#ED0415" transform="translate(132,272)"/>
<path d="M0 0 C1.32 0.33 2.64 0.66 4 1 C3.67 2.65 3.34 4.3 3 6 C1.35 5.67 -0.3 5.34 -2 5 C-1.34 3.35 -0.68 1.7 0 0 Z " fill="#D80B17" transform="translate(188,257)"/>
<path d="M0 0 C0.33 1.32 0.66 2.64 1 4 C0.01 3.67 -0.98 3.34 -2 3 C-2.33 3.99 -2.66 4.98 -3 6 C-2.34 6 -1.68 6 -1 6 C-1 6.66 -1 7.32 -1 8 C-2.32 8 -3.64 8 -5 8 C-5.36625971 3.48279689 -5.36625971 3.48279689 -3.625 1.1875 C-2 0 -2 0 0 0 Z " fill="#ED0516" transform="translate(269,222)"/>
<path d="M0 0 C0.64453125 1.765625 0.64453125 1.765625 1 4 C0.07421875 5.921875 0.07421875 5.921875 -1.3125 7.75 C-1.98732422 8.67039063 -1.98732422 8.67039063 -2.67578125 9.609375 C-3.11277344 10.06828125 -3.54976563 10.5271875 -4 11 C-4.66 11 -5.32 11 -6 11 C-6 10.01 -6 9.02 -6 8 C-5.34 8 -4.68 8 -4 8 C-3.7834375 7.071875 -3.7834375 7.071875 -3.5625 6.125 C-3 4 -3 4 -2 2 C-1.34 2 -0.68 2 0 2 C0 1.34 0 0.68 0 0 Z " fill="#D0101C" transform="translate(264,196)"/>
<path d="M0 0 C0.66 0 1.32 0 2 0 C2 0.99 2 1.98 2 3 C1.34 3 0.68 3 0 3 C0 4.32 0 5.64 0 7 C-0.66 7 -1.32 7 -2 7 C-2 7.66 -2 8.32 -2 9 C-2.66 9 -3.32 9 -4 9 C-4.33 9.66 -4.66 10.32 -5 11 C-4.46968862 6.4923533 -2.74778884 3.58045212 0 0 Z " fill="#D80E1E" transform="translate(244,173)"/>
<path d="M0 0 C3.3 0 6.6 0 10 0 C10 0.66 10 1.32 10 2 C6.7 2.33 3.4 2.66 0 3 C0 2.01 0 1.02 0 0 Z " fill="#C10E1A" transform="translate(150,168)"/>
<path d="M0 0 C1.98 0 3.96 0 6 0 C6 0.99 6 1.98 6 3 C0.58461538 4.23076923 0.58461538 4.23076923 -2.375 3.0625 C-2.91125 2.711875 -3.4475 2.36125 -4 2 C-2.68 2 -1.36 2 0 2 C0 1.34 0 0.68 0 0 Z " fill="#D20C1E" transform="translate(20,316)"/>
<path d="M0 0 C0.75 1.625 0.75 1.625 1 4 C-0.75 7.25 -0.75 7.25 -3 10 C-3.99 10 -4.98 10 -6 10 C-6 9.34 -6 8.68 -6 8 C-5.34 8 -4.68 8 -4 8 C-3.7834375 7.071875 -3.7834375 7.071875 -3.5625 6.125 C-3 4 -3 4 -2 2 C-1.34 2 -0.68 2 0 2 C0 1.34 0 0.68 0 0 Z " fill="#BB0E1C" transform="translate(258,288)"/>
<path d="M0 0 C0.66 1.65 1.32 3.3 2 5 C-0.31 5 -2.62 5 -5 5 C-5.33 4.34 -5.66 3.68 -6 3 C-2.25 0 -2.25 0 0 0 Z " fill="#D30C17" transform="translate(174,289)"/>
<path d="M0 0 C0.66 0 1.32 0 2 0 C2 1.32 2 2.64 2 4 C1.34 4 0.68 4 0 4 C0 4.66 0 5.32 0 6 C-0.66 6 -1.32 6 -2 6 C-2 6.66 -2 7.32 -2 8 C-2.66 8 -3.32 8 -4 8 C-4 6.68 -4 5.36 -4 4 C-3.34 4 -2.68 4 -2 4 C-2 3.34 -2 2.68 -2 2 C-1.34 2 -0.68 2 0 2 C0 1.34 0 0.68 0 0 Z " fill="#ED0317" transform="translate(206,280)"/>
<path d="M0 0 C2.97 0 5.94 0 9 0 C9.33 0.66 9.66 1.32 10 2 C5.545 2.495 5.545 2.495 1 3 C0.67 2.01 0.34 1.02 0 0 Z " fill="#BD0C17" transform="translate(104,240)"/>
<path d="M0 0 C2 2 2 2 2.375 4.875 C1.92491816 8.62568199 0.87398748 9.66488517 -2 12 C-2 10.35 -2 8.7 -2 7 C-1.34 7 -0.68 7 0 7 C0 4.69 0 2.38 0 0 Z " fill="#BA0F1A" transform="translate(218,181)"/>
<path d="M0 0 C0.66 0 1.32 0 2 0 C2 0.66 2 1.32 2 2 C3.32 2.33 4.64 2.66 6 3 C2.91190305 4.76462683 1.76687864 5 -2 5 C-2 4.01 -2 3.02 -2 2 C-1.34 2 -0.68 2 0 2 C0 1.34 0 0.68 0 0 Z " fill="#C90D13" transform="translate(8,318)"/>
<path d="M0 0 C1.65 0 3.3 0 5 0 C2.62884556 2.74554724 0.46920075 3.95117186 -3 5 C-6.3125 5.125 -6.3125 5.125 -9 5 C-9 4.67 -9 4.34 -9 4 C-8.43410156 3.87882812 -7.86820312 3.75765625 -7.28515625 3.6328125 C-6.18494141 3.38144531 -6.18494141 3.38144531 -5.0625 3.125 C-4.33160156 2.96257812 -3.60070312 2.80015625 -2.84765625 2.6328125 C-0.79299706 2.17038477 -0.79299706 2.17038477 0 0 Z " fill="#950613" transform="translate(468,308)"/>
<path d="M0 0 C0.99 0.33 1.98 0.66 3 1 C2.34 2.32 1.68 3.64 1 5 C0.01 5 -0.98 5 -2 5 C-2 5.66 -2 6.32 -2 7 C-2.66 7 -3.32 7 -4 7 C-2.79618552 4.50638429 -1.54571278 2.31856917 0 0 Z " fill="#D80C1C" transform="translate(284,273)"/>
<path d="M0 0 C0.66 0.66 1.32 1.32 2 2 C1.34 4.31 0.68 6.62 0 9 C-0.66 9 -1.32 9 -2 9 C-2 8.34 -2 7.68 -2 7 C-2.66 7 -3.32 7 -4 7 C-2.79618552 4.50638429 -1.54571278 2.31856917 0 0 Z " fill="#C60A13" transform="translate(240,255)"/>
<path d="M0 0 C0.99 0.33 1.98 0.66 3 1 C2.67 2.32 2.34 3.64 2 5 C2.66 5.33 3.32 5.66 4 6 C2.02 6 0.04 6 -2 6 C-2 4.68 -2 3.36 -2 2 C-1.34 2 -0.68 2 0 2 C0 1.34 0 0.68 0 0 Z " fill="#BF0B19" transform="translate(110,218)"/>
<path d="M0 0 C0.66 0.33 1.32 0.66 2 1 C1.34 2.65 0.68 4.3 0 6 C-0.66 6 -1.32 6 -2 6 C-2.33 6.66 -2.66 7.32 -3 8 C-3 5.69 -3 3.38 -3 1 C-2.01 0.67 -1.02 0.34 0 0 Z " fill="#C00F18" transform="translate(155,289)"/>
<path d="M0 0 C0.33 0.66 0.66 1.32 1 2 C1.99 2.33 2.98 2.66 4 3 C2.6875 5.5 2.6875 5.5 1 8 C0.01 8 -0.98 8 -2 8 C-1.34 5.36 -0.68 2.72 0 0 Z " fill="#CE0D17" transform="translate(359,284)"/>
<path d="M0 0 C1.98 0.66 3.96 1.32 6 2 C6 2.66 6 3.32 6 4 C5.34 4 4.68 4 4 4 C4 4.66 4 5.32 4 6 C3.34 6 2.68 6 2 6 C2 5.34 2 4.68 2 4 C1.01 4 0.02 4 -1 4 C-0.67 2.68 -0.34 1.36 0 0 Z " fill="#C90C15" transform="translate(460,280)"/>
<path d="M0 0 C0.6875 1.75 0.6875 1.75 1 4 C-0.3125 6.25 -0.3125 6.25 -2 8 C-2.66 8 -3.32 8 -4 8 C-4 6.02 -4 4.04 -4 2 C-2.68 2 -1.36 2 0 2 C0 1.34 0 0.68 0 0 Z " fill="#C70D1C" transform="translate(358,278)"/>
<path d="M0 0 C1.32 0.33 2.64 0.66 4 1 C4 2.65 4 4.3 4 6 C4.99 6.33 5.98 6.66 7 7 C6.01 7.495 6.01 7.495 5 8 C4.01 7.67 3.02 7.34 2 7 C2 5.68 2 4.36 2 3 C1.34 3 0.68 3 0 3 C0 2.01 0 1.02 0 0 Z " fill="#D70D1B" transform="translate(290,231)"/>
<path d="M0 0 C0.66 0 1.32 0 2 0 C2.33 0.99 2.66 1.98 3 3 C-2.625 5.125 -2.625 5.125 -6 4 C-5.34 3.34 -4.68 2.68 -4 2 C-2.68 2 -1.36 2 0 2 C0 1.34 0 0.68 0 0 Z " fill="#BA0C17" transform="translate(196,160)"/>
<path d="M0 0 C0.99 0.99 1.98 1.98 3 3 C1.02 5.97 1.02 5.97 -1 9 C-1.66 8.34 -2.32 7.68 -3 7 C-2.67 6.01 -2.34 5.02 -2 4 C-1.34 4 -0.68 4 0 4 C0 2.68 0 1.36 0 0 Z " fill="#B10A18" transform="translate(250,298)"/>
<path d="M0 0 C2 2 2 2 2 4 C2.66 4.33 3.32 4.66 4 5 C3.67 5.66 3.34 6.32 3 7 C1.68 7 0.36 7 -1 7 C-1.04254356 5.00045254 -1.04080783 2.99958364 -1 1 C-0.67 0.67 -0.34 0.34 0 0 Z " fill="#AA0D17" transform="translate(203,293)"/>
<path d="M0 0 C0.66 0.33 1.32 0.66 2 1 C1.01 2.98 0.02 4.96 -1 7 C-2.32 7 -3.64 7 -5 7 C-5 6.34 -5 5.68 -5 5 C-4.34 5 -3.68 5 -3 5 C-3 4.34 -3 3.68 -3 3 C-2.34 3 -1.68 3 -1 3 C-0.67 2.01 -0.34 1.02 0 0 Z " fill="#BB0D16" transform="translate(209,281)"/>
<path d="M0 0 C0.66 0.99 1.32 1.98 2 3 C0.515 5.475 0.515 5.475 -1 8 C-1.99 7.34 -2.98 6.68 -4 6 C-2.68 4.02 -1.36 2.04 0 0 Z " fill="#C10A13" transform="translate(233,264)"/>
<path d="M0 0 C0.33 0.99 0.66 1.98 1 3 C-0.28965176 4.37562854 -1.62689293 5.70766393 -3 7 C-3.66 7 -4.32 7 -5 7 C-5 7.66 -5 8.32 -5 9 C-5.66 9 -6.32 9 -7 9 C-5.79618552 6.50638429 -4.54571278 4.31856917 -3 2 C-2.01 2 -1.02 2 0 2 C0 1.34 0 0.68 0 0 Z " fill="#D00F1E" transform="translate(191,191)"/>
<path d="M0 0 C2.5 1.75 2.5 1.75 5 4 C5 5.32 5 6.64 5 8 C4.34 8 3.68 8 3 8 C3 6.68 3 5.36 3 4 C1.68 4 0.36 4 -1 4 C-0.67 2.68 -0.34 1.36 0 0 Z " fill="#DE0C1F" transform="translate(213,176)"/>
<path d="M0 0 C1.32 0 2.64 0 4 0 C4 0.66 4 1.32 4 2 C3.34 2 2.68 2 2 2 C2 2.66 2 3.32 2 4 C1.34 4 0.68 4 0 4 C0 4.66 0 5.32 0 6 C-0.66 6 -1.32 6 -2 6 C-2 4.68 -2 3.36 -2 2 C-1.34 2 -0.68 2 0 2 C0 1.34 0 0.68 0 0 Z " fill="#EF0414" transform="translate(204,154)"/>
<path d="M0 0 C0 1.65 0 3.3 0 5 C-1.65 4.67 -3.3 4.34 -5 4 C-4.67 3.01 -4.34 2.02 -4 1 C-2 0 -2 0 0 0 Z " fill="#CC0812" transform="translate(270,141)"/>
<path d="M0 0 C0.66 0.33 1.32 0.66 2 1 C1.34 2.65 0.68 4.3 0 6 C-0.66 6 -1.32 6 -2 6 C-2 6.66 -2 7.32 -2 8 C-1.01 8.33 -0.02 8.66 1 9 C-0.32 9 -1.64 9 -3 9 C-2.44271087 5.65626525 -1.64826111 2.96687001 0 0 Z " fill="#C9111D" transform="translate(4,314)"/>
<path d="M0 0 C-1.36983503 3.16115776 -1.9890638 3.9927092 -5 6 C-5.99 5.34 -6.98 4.68 -8 4 C-3.375 0 -3.375 0 0 0 Z " fill="#E60C21" transform="translate(372,274)"/>
<path d="M0 0 C0.66 0 1.32 0 2 0 C1.42415568 2.38564077 0.77772405 4.66682784 0 7 C-0.99 7 -1.98 7 -3 7 C-2.38722388 4.03824877 -1.74627478 2.61941217 0 0 Z " fill="#D20F18" transform="translate(34,269)"/>
<path d="M0 0 C0.99 0 1.98 0 3 0 C3.33 1.32 3.66 2.64 4 4 C3.34 4 2.68 4 2 4 C2 4.66 2 5.32 2 6 C1.34 6 0.68 6 0 6 C-1.125 2.25 -1.125 2.25 0 0 Z " fill="#EB0519" transform="translate(160,226)"/>
<path d="M0 0 C0.99 0 1.98 0 3 0 C1.75023244 3.65316671 1.32901247 4.78065836 -2 7 C-1.125 1.125 -1.125 1.125 0 0 Z " fill="#CF0F1D" transform="translate(163,221)"/>
<path d="M0 0 C0.66 0 1.32 0 2 0 C1.34 2.31 0.68 4.62 0 7 C-1.32 6.67 -2.64 6.34 -4 6 C-2.7260411 3.96166576 -1.38938077 1.96147874 0 0 Z " fill="#DB0D19" transform="translate(74,211)"/>
<path d="M0 0 C0.33 0.99 0.66 1.98 1 3 C-0.4375 5.1875 -0.4375 5.1875 -2 7 C-3.32 6.67 -4.64 6.34 -6 6 C-6 5.34 -6 4.68 -6 4 C-4.68 4 -3.36 4 -2 4 C-2 3.34 -2 2.68 -2 2 C-1.34 2 -0.68 2 0 2 C0 1.34 0 0.68 0 0 Z " fill="#CF0F1D" transform="translate(116,210)"/>
<path d="M0 0 C0.6875 1.75 0.6875 1.75 1 4 C-0.3125 6.25 -0.3125 6.25 -2 8 C-2.66 8 -3.32 8 -4 8 C-3.49396008 5.83125748 -3.00016187 4.00032373 -2 2 C-1.34 2 -0.68 2 0 2 C0 1.34 0 0.68 0 0 Z " fill="#BE0E1D" transform="translate(256,208)"/>
<path d="M0 0 C0.33 0 0.66 0 1 0 C1 1.65 1 3.3 1 5 C0.34 5 -0.32 5 -1 5 C-1 5.66 -1 6.32 -1 7 C-1.66 7 -2.32 7 -3 7 C-3.33 7.66 -3.66 8.32 -4 9 C-4 4.98525763 -2.33218233 3.18024863 0 0 Z " fill="#DC0E1E" transform="translate(225,201)"/>
<path d="M0 0 C0.33 0.99 0.66 1.98 1 3 C-0.32 4.32 -1.64 5.64 -3 7 C-3.99 6.67 -4.98 6.34 -6 6 C-5.34 6 -4.68 6 -4 6 C-4 4.68 -4 3.36 -4 2 C-2.68 2 -1.36 2 0 2 C0 1.34 0 0.68 0 0 Z " fill="#C4101D" transform="translate(214,192)"/>
<path d="M0 0 C0.6875 1.6875 0.6875 1.6875 1 4 C-0.3125 6.75 -0.3125 6.75 -2 9 C-2.66 9 -3.32 9 -4 9 C-4 8.01 -4 7.02 -4 6 C-3.34 6 -2.68 6 -2 6 C-2 4.68 -2 3.36 -2 2 C-1.34 2 -0.68 2 0 2 C0 1.34 0 0.68 0 0 Z " fill="#CA1120" transform="translate(270,186)"/>
<path d="M0 0 C0.99 0.33 1.98 0.66 3 1 C2.01 2.98 1.02 4.96 0 7 C-1.32 6.67 -2.64 6.34 -4 6 C-3.34 6 -2.68 6 -2 6 C-1.34 4.02 -0.68 2.04 0 0 Z " fill="#B80B1C" transform="translate(138,176)"/>
<path d="M0 0 C0.75 1.75 0.75 1.75 1 4 C-0.9375 6.25 -0.9375 6.25 -3 8 C-3.33 6.35 -3.66 4.7 -4 3 C-2.68 2.67 -1.36 2.34 0 2 C0 1.34 0 0.68 0 0 Z " fill="#D60A1C" transform="translate(302,300)"/>
<path d="M0 0 C1.32 0.66 2.64 1.32 4 2 C2.35 3.65 0.7 5.3 -1 7 C-1.33 6.01 -1.66 5.02 -2 4 C-1.34 4 -0.68 4 0 4 C0 2.68 0 1.36 0 0 Z " fill="#AE0917" transform="translate(62,282)"/>
<path d="M0 0 C0.66 0 1.32 0 2 0 C2.6875 2.3125 2.6875 2.3125 3 5 C1.5625 6.8125 1.5625 6.8125 0 8 C-0.66 7.34 -1.32 6.68 -2 6 C-1.34 6 -0.68 6 0 6 C0 4.02 0 2.04 0 0 Z " fill="#C20C11" transform="translate(168,262)"/>
<path d="M0 0 C2.97 0.495 2.97 0.495 6 1 C6 1.66 6 2.32 6 3 C5.34 3 4.68 3 4 3 C4 3.66 4 4.32 4 5 C3.34 5 2.68 5 2 5 C1.34 3.35 0.68 1.7 0 0 Z " fill="#D20C16" transform="translate(390,259)"/>
<path d="M0 0 C0.66 0.33 1.32 0.66 2 1 C2 2.65 2 4.3 2 6 C0.68 6 -0.64 6 -2 6 C-1.125 1.125 -1.125 1.125 0 0 Z " fill="#D40D0C" transform="translate(342,246)"/>
<path d="M0 0 C2.125 0.375 2.125 0.375 4 1 C4 2.32 4 3.64 4 5 C3.34 5 2.68 5 2 5 C2 4.34 2 3.68 2 3 C0.68 2.67 -0.64 2.34 -2 2 C-1.34 1.34 -0.68 0.68 0 0 Z " fill="#CB0C12" transform="translate(350,241)"/>
<path d="M0 0 C0.66 0 1.32 0 2 0 C2 2.31 2 4.62 2 7 C1.34 7 0.68 7 0 7 C-0.38133299 5.0085944 -0.71325582 3.00720923 -1 1 C-0.67 0.67 -0.34 0.34 0 0 Z " fill="#D10A1B" transform="translate(382,231)"/>
<path d="M0 0 C2.97 0.495 2.97 0.495 6 1 C6 2.32 6 3.64 6 5 C5.34 5 4.68 5 4 5 C4 4.34 4 3.68 4 3 C3.34 3 2.68 3 2 3 C2 2.34 2 1.68 2 1 C1.34 0.67 0.68 0.34 0 0 Z " fill="#B80C1C" transform="translate(280,225)"/>
<path d="M0 0 C1.32 0.66 2.64 1.32 4 2 C3.67 2.99 3.34 3.98 3 5 C1.35 5 -0.3 5 -2 5 C-2 4.34 -2 3.68 -2 3 C-1.34 2.67 -0.68 2.34 0 2 C0 1.34 0 0.68 0 0 Z " fill="#BB0818" transform="translate(186,225)"/>
<path d="M0 0 C2.475 0.495 2.475 0.495 5 1 C3.515 3.475 3.515 3.475 2 6 C1.34 5.34 0.68 4.68 0 4 C0 2.68 0 1.36 0 0 Z " fill="#D50E1A" transform="translate(132,182)"/>
<path d="M0 0 C1.98 0 3.96 0 6 0 C6 0.66 6 1.32 6 2 C5.01 2 4.02 2 3 2 C2.34 3.32 1.68 4.64 1 6 C0.67 4.02 0.34 2.04 0 0 Z " fill="#C80C18" transform="translate(140,170)"/>
<path d="M0 0 C0 0.66 0 1.32 0 2 C-3.375 2.625 -3.375 2.625 -7 3 C-7.66 2.34 -8.32 1.68 -9 1 C-6.04335481 -0.4783226 -3.25770263 -0.06032783 0 0 Z " fill="#A60F15" transform="translate(187,164)"/>
<path d="M0 0 C1.65 0 3.3 0 5 0 C5 0.66 5 1.32 5 2 C2.04335481 3.4783226 -0.74229737 3.06032783 -4 3 C-2.68 2.67 -1.36 2.34 0 2 C0 1.34 0 0.68 0 0 Z " fill="#C61021" transform="translate(404,304)"/>
<path d="M0 0 C0.33 0.66 0.66 1.32 1 2 C3.02463255 2.65213292 3.02463255 2.65213292 5 3 C5.33 4.65 5.66 6.3 6 8 C1.3125 4.38671875 1.3125 4.38671875 0 3 C0 2.01 0 1.02 0 0 Z " fill="#CA0E1E" transform="translate(327,298)"/>
<path d="M0 0 C0.33 1.32 0.66 2.64 1 4 C1.66 4 2.32 4 3 4 C3 3.34 3 2.68 3 2 C3.66 2 4.32 2 5 2 C5 3.32 5 4.64 5 6 C3.35 5.67 1.7 5.34 0 5 C0 3.35 0 1.7 0 0 Z " fill="#E80814" transform="translate(323,282)"/>
<path d="M0 0 C0.66 0.66 1.32 1.32 2 2 C1.01 4.64 0.02 7.28 -1 10 C-1.66 9.01 -2.32 8.02 -3 7 C-1.625 3.3125 -1.625 3.3125 0 0 Z " fill="#DA0F1C" transform="translate(125,278)"/>
<path d="M0 0 C1.32 0.66 2.64 1.32 4 2 C2.35 3.65 0.7 5.3 -1 7 C-1.33 6.01 -1.66 5.02 -2 4 C-1.34 4 -0.68 4 0 4 C0 2.68 0 1.36 0 0 Z " fill="#BC0916" transform="translate(68,274)"/>
<path d="M0 0 C1 3 1 3 -0.3125 5.6875 C-0.869375 6.450625 -1.42625 7.21375 -2 8 C-2.66 8 -3.32 8 -4 8 C-4 6.68 -4 5.36 -4 4 C-3.34 4 -2.68 4 -2 4 C-2 3.34 -2 2.68 -2 2 C-1.34 2 -0.68 2 0 2 C0 1.34 0 0.68 0 0 Z " fill="#CC0F1F" transform="translate(226,254)"/>
<path d="M0 0 C3.875 0.875 3.875 0.875 5 2 C5.04080783 3.99958364 5.04254356 6.00045254 5 8 C4.67 6.68 4.34 5.36 4 4 C3.34 4 2.68 4 2 4 C2 3.34 2 2.68 2 2 C1.34 2 0.68 2 0 2 C0 1.34 0 0.68 0 0 Z " fill="#D30E1D" transform="translate(368,244)"/>
<path d="M0 0 C1.32 0 2.64 0 4 0 C3.625 2.4375 3.625 2.4375 3 5 C2.01 5.495 2.01 5.495 1 6 C0.67 4.02 0.34 2.04 0 0 Z " fill="#D80F1D" transform="translate(48,244)"/>
</svg>
